<svg width="2000" height="403" viewBox="0 0 2000 403" fill="none" xmlns="http://www.w3.org/2000/svg">
<path d="M1959.76 159.12H1994.78L1944.06 310.063H1908.74L1870.7 198.063L1834.78 310.063H1799.46L1749.04 159.12H1783.76L1818.18 278.365L1855.61 159.12H1887.91L1925.35 278.365L1959.76 159.12Z" fill="#1B1B1B"/>
<path d="M1673.39 156.101C1688.08 156.101 1701.06 159.22 1712.33 165.459C1723.6 171.698 1732.36 180.755 1738.6 192.629C1745.04 204.302 1748.26 218.289 1748.26 234.591C1748.26 250.893 1745.04 264.981 1738.6 276.855C1732.36 288.528 1723.6 297.484 1712.33 303.723C1701.06 309.962 1688.08 313.082 1673.39 313.082C1658.7 313.082 1645.72 309.962 1634.44 303.723C1623.17 297.484 1614.32 288.528 1607.88 276.855C1601.44 264.981 1598.22 250.893 1598.22 234.591C1598.22 218.289 1601.44 204.302 1607.88 192.629C1614.32 180.755 1623.17 171.698 1634.44 165.459C1645.72 159.22 1658.7 156.101 1673.39 156.101ZM1673.39 181.459C1664.33 181.459 1656.58 183.572 1650.14 187.799C1643.9 191.824 1639.07 197.761 1635.65 205.61C1632.23 213.459 1630.52 223.119 1630.52 234.591C1630.52 245.862 1632.23 255.522 1635.65 263.572C1639.07 271.421 1643.9 277.459 1650.14 281.686C1656.58 285.711 1664.33 287.723 1673.39 287.723C1682.44 287.723 1690.09 285.711 1696.33 281.686C1702.57 277.459 1707.4 271.421 1710.82 263.572C1714.24 255.522 1715.95 245.862 1715.95 234.591C1715.95 223.119 1714.24 213.459 1710.82 205.61C1707.4 197.761 1702.57 191.824 1696.33 187.799C1690.09 183.572 1682.44 181.459 1673.39 181.459Z" fill="#1B1B1B"/>
<path d="M1442.1 310.063V91.1949H1474.4V183.27C1479.43 173.811 1486.18 166.969 1494.63 162.742C1503.28 158.314 1512.84 156.101 1523.31 156.101C1533.97 156.101 1543.53 158.214 1551.99 162.44C1560.64 166.465 1567.48 172.604 1572.52 180.855C1577.55 189.107 1580.06 199.572 1580.06 212.252V310.063H1547.76V222.516C1547.76 207.623 1544.64 197.258 1538.4 191.421C1532.36 185.585 1524.72 182.667 1515.46 182.667C1509.02 182.667 1502.58 184.277 1496.14 187.497C1489.9 190.516 1484.67 195.547 1480.44 202.591C1476.41 209.434 1474.4 218.692 1474.4 230.365V310.063H1442.1Z" fill="#1B1B1B"/>
<path d="M1335.96 107.799C1353.87 107.799 1369.37 111.22 1382.45 118.063C1395.53 124.704 1406.6 134.566 1415.65 147.648L1393.92 168.478C1386.27 156.805 1377.62 148.453 1367.96 143.421C1358.5 138.189 1347.23 135.572 1334.14 135.572C1324.48 135.572 1316.53 136.88 1310.3 139.497C1304.06 142.113 1299.43 145.635 1296.41 150.063C1293.59 154.289 1292.18 159.119 1292.18 164.553C1292.18 170.792 1294.3 176.226 1298.52 180.855C1302.95 185.484 1311.1 189.107 1322.98 191.723L1363.43 200.78C1382.75 205.006 1396.43 211.447 1404.48 220.101C1412.53 228.755 1416.56 239.723 1416.56 253.006C1416.56 265.283 1413.24 275.95 1406.6 285.006C1399.96 294.063 1390.7 301.006 1378.82 305.836C1367.15 310.667 1353.37 313.082 1337.47 313.082C1323.38 313.082 1310.7 311.27 1299.43 307.648C1288.16 304.025 1278.3 299.094 1269.84 292.855C1261.39 286.616 1254.45 279.472 1249.01 271.421L1271.35 249.082C1275.58 256.126 1280.91 262.465 1287.35 268.101C1293.79 273.535 1301.24 277.761 1309.69 280.78C1318.35 283.799 1327.91 285.308 1338.37 285.308C1347.63 285.308 1355.58 284.201 1362.22 281.987C1369.06 279.774 1374.2 276.553 1377.62 272.327C1381.24 267.899 1383.05 262.667 1383.05 256.629C1383.05 250.792 1381.04 245.66 1377.01 241.233C1373.19 236.805 1365.94 233.384 1355.28 230.969L1311.5 221.006C1299.43 218.39 1289.47 214.667 1281.62 209.836C1273.77 205.006 1267.93 199.17 1264.11 192.327C1260.28 185.283 1258.37 177.434 1258.37 168.78C1258.37 157.509 1261.39 147.346 1267.43 138.289C1273.67 129.031 1282.62 121.686 1294.3 116.252C1305.97 110.616 1319.86 107.799 1335.96 107.799Z" fill="#1B1B1B"/>
<path d="M1242.07 159.119L1174.75 227.95L1167.8 232.78L1120.41 281.987L1120.1 245.157L1203.73 159.119H1242.07ZM1131.88 91.1949V310.063H1099.58V91.1949H1131.88ZM1178.67 209.836L1245.69 310.063H1208.26L1154.52 228.252L1178.67 209.836Z" fill="#1B1B1B"/>
<path d="M1010.36 156.101C1022.44 156.101 1032.7 157.912 1041.15 161.535C1049.81 164.956 1057.05 169.887 1062.89 176.327C1068.73 182.767 1073.15 190.113 1076.17 198.365L1045.68 210.44C1043.07 201.182 1038.84 194.138 1033 189.308C1027.37 184.277 1019.92 181.761 1010.66 181.761C1001.61 181.761 993.859 183.874 987.419 188.101C980.978 192.126 976.048 198.063 972.626 205.912C969.406 213.761 967.796 223.421 967.796 234.893C967.796 246.164 969.507 255.723 972.928 263.572C976.35 271.421 981.28 277.358 987.721 281.384C994.161 285.409 1001.81 287.421 1010.66 287.421C1017.51 287.421 1023.44 286.314 1028.48 284.101C1033.51 281.686 1037.63 278.365 1040.85 274.138C1044.27 269.711 1046.59 264.377 1047.8 258.138L1077.08 268.101C1074.26 277.157 1069.83 285.107 1063.8 291.95C1057.96 298.591 1050.61 303.824 1041.76 307.648C1032.9 311.27 1022.74 313.082 1011.27 313.082C996.375 313.082 983.192 309.962 971.721 303.723C960.249 297.484 951.293 288.528 944.853 276.855C938.614 264.981 935.494 250.893 935.494 234.591C935.494 218.289 938.614 204.302 944.853 192.629C951.293 180.755 960.148 171.698 971.419 165.459C982.89 159.22 995.872 156.101 1010.36 156.101Z" fill="#1B1B1B"/>
<path d="M878.343 213.157C878.343 203.094 875.526 195.346 869.89 189.912C864.456 184.277 856.909 181.459 847.249 181.459C838.192 181.459 830.444 183.572 824.004 187.799C817.563 192.025 812.834 198.868 809.815 208.327L782.645 196.855C786.469 184.579 793.916 174.717 804.985 167.27C816.255 159.824 830.746 156.101 848.456 156.101C860.532 156.101 871.199 158.113 880.456 162.138C889.714 165.962 896.96 171.799 902.192 179.648C907.626 187.497 910.343 197.56 910.343 209.836V277.157C910.343 284.604 914.067 288.327 921.513 288.327C925.136 288.327 928.658 287.824 932.079 286.818L930.268 309.157C925.639 311.371 919.802 312.478 912.758 312.478C906.318 312.478 900.482 311.371 895.249 309.157C890.217 306.742 886.192 303.22 883.173 298.591C880.356 293.761 878.947 287.824 878.947 280.78V278.667L885.589 278.365C883.777 286.214 880.054 292.755 874.419 297.987C868.784 303.019 862.243 306.843 854.796 309.459C847.35 311.874 839.802 313.082 832.155 313.082C822.695 313.082 814.142 311.572 806.494 308.553C799.048 305.535 793.111 301.006 788.683 294.969C784.456 288.73 782.343 281.082 782.343 272.025C782.343 260.755 785.966 251.497 793.211 244.252C800.658 237.006 811.123 232.075 824.607 229.459L883.173 217.987L882.872 240.629L840.306 249.384C831.853 250.994 825.513 253.308 821.287 256.327C817.06 259.346 814.947 263.774 814.947 269.61C814.947 275.245 817.06 279.774 821.287 283.195C825.714 286.415 831.551 288.025 838.796 288.025C843.828 288.025 848.658 287.421 853.287 286.214C858.117 285.006 862.444 283.094 866.268 280.478C870.092 277.66 873.01 274.138 875.023 269.912C877.236 265.484 878.343 260.252 878.343 254.214V213.157Z" fill="#1B1B1B"/>
<path d="M719.301 114.742V264.78C719.301 272.226 721.213 277.66 725.037 281.082C729.062 284.503 734.395 286.214 741.037 286.214C746.471 286.214 751.2 285.409 755.225 283.799C759.251 281.987 762.974 279.572 766.395 276.554L773.64 300.101C769.012 304.126 763.276 307.346 756.433 309.761C749.791 311.975 742.345 313.082 734.093 313.082C725.439 313.082 717.49 311.673 710.244 308.855C702.999 306.038 697.364 301.509 693.339 295.271C689.313 288.83 687.2 280.478 686.999 270.214V123.799L719.301 114.742ZM771.225 159.12V184.478H658.018V159.12H771.225Z" fill="#1B1B1B"/>
<path d="M566.063 107.799C583.974 107.799 599.471 111.22 612.553 118.063C625.635 124.704 636.704 134.566 645.761 147.648L624.025 168.478C616.377 156.805 607.723 148.453 598.063 143.421C588.603 138.189 577.333 135.572 564.251 135.572C554.591 135.572 546.641 136.88 540.402 139.497C534.163 142.113 529.534 145.635 526.515 150.063C523.698 154.289 522.289 159.119 522.289 164.553C522.289 170.792 524.402 176.226 528.629 180.855C533.056 185.484 541.207 189.107 553.081 191.723L593.534 200.78C612.855 205.006 626.541 211.447 634.591 220.101C642.641 228.755 646.666 239.723 646.666 253.006C646.666 265.283 643.346 275.95 636.704 285.006C630.063 294.063 620.805 301.006 608.93 305.836C597.258 310.667 583.471 313.082 567.572 313.082C553.484 313.082 540.805 311.27 529.534 307.648C518.264 304.025 508.402 299.094 499.949 292.855C491.496 286.616 484.553 279.472 479.119 271.421L501.459 249.082C505.685 256.126 511.019 262.465 517.459 268.101C523.899 273.535 531.346 277.761 539.798 280.78C548.452 283.799 558.012 285.308 568.478 285.308C577.735 285.308 585.685 284.201 592.327 281.987C599.169 279.774 604.302 276.553 607.723 272.327C611.346 267.899 613.157 262.667 613.157 256.629C613.157 250.792 611.144 245.66 607.119 241.233C603.295 236.805 596.05 233.384 585.383 230.969L541.61 221.006C529.534 218.39 519.572 214.667 511.723 209.836C503.874 205.006 498.037 199.17 494.213 192.327C490.39 185.283 488.478 177.434 488.478 168.78C488.478 157.509 491.496 147.346 497.534 138.289C503.773 129.031 512.729 121.686 524.402 116.252C536.075 110.616 549.962 107.799 566.063 107.799Z" fill="#1B1B1B"/>
<path d="M11.2125 114.046C9.07339 112.811 9.07339 110.809 11.2125 109.574L42.1982 91.6841C44.3373 90.4491 47.8055 90.4491 49.9446 91.6841L80.9303 109.574C83.0694 110.809 83.0694 112.811 80.9303 114.046L49.9446 131.936C47.8055 133.171 44.3373 133.171 42.1982 131.936L11.2125 114.046Z" fill="url(#paint0_linear_4_34)"/>
<path d="M204.873 181.132C202.734 179.897 199.266 179.897 197.127 181.132L166.141 199.022C164.002 200.257 164.002 202.259 166.141 203.494L197.127 221.384C199.266 222.619 202.734 222.619 204.873 221.384L235.859 203.494C237.998 202.259 237.998 200.257 235.859 199.022L204.873 181.132Z" fill="url(#paint1_linear_4_34)"/>
<path fill-rule="evenodd" clip-rule="evenodd" d="M11.2125 203.494C9.07338 202.259 9.07338 200.257 11.2125 199.022L197.127 91.6841C199.266 90.4491 202.734 90.4491 204.873 91.6841L390.787 199.022C392.926 200.257 392.926 202.259 390.787 203.494L204.873 310.832C202.734 312.067 199.266 312.067 197.127 310.832L11.2125 203.494ZM88.6767 203.494C86.5376 202.259 86.5376 200.257 88.6767 199.022L197.127 136.408C199.266 135.173 202.734 135.173 204.873 136.408L313.323 199.022C315.462 200.257 315.462 202.259 313.323 203.494L204.873 266.108C202.734 267.343 199.266 267.343 197.127 266.108L88.6767 203.494Z" fill="url(#paint2_linear_4_34)"/>
<path d="M11.2125 292.942C9.07338 291.707 9.07338 289.705 11.2125 288.47L42.1982 270.58C44.3373 269.345 47.8055 269.345 49.9446 270.58L197.127 355.556C199.266 356.791 202.734 356.791 204.873 355.556L352.055 270.58C354.194 269.345 357.662 269.345 359.801 270.58L390.787 288.47C392.926 289.705 392.926 291.707 390.787 292.942L204.873 400.28C202.734 401.515 199.266 401.515 197.127 400.28L11.2125 292.942Z" fill="url(#paint3_linear_4_34)"/>
<path d="M313.323 69.3222C315.462 68.0871 315.462 66.0848 313.323 64.8498L282.337 46.9602C280.198 45.7251 276.73 45.7251 274.591 46.9602L243.605 64.8498C241.466 66.0848 241.466 68.0871 243.605 69.3222L274.591 87.2117C276.73 88.4468 280.198 88.4468 282.337 87.2117L313.323 69.3222Z" fill="url(#paint4_linear_4_34)"/>
<path d="M390.787 114.046C392.926 112.811 392.926 110.809 390.787 109.574L359.801 91.6841C357.662 90.4491 354.194 90.4491 352.055 91.6841L321.069 109.574C318.93 110.809 318.93 112.811 321.069 114.046L352.055 131.936C354.194 133.171 357.662 133.171 359.801 131.936L390.787 114.046Z" fill="url(#paint5_linear_4_34)"/>
<path d="M88.6767 69.3222C86.5376 68.0871 86.5376 66.0848 88.6767 64.8498L119.662 46.9602C121.801 45.7251 125.27 45.7251 127.409 46.9602L158.394 64.8498C160.534 66.0848 160.534 68.0871 158.394 69.3222L127.409 87.2117C125.27 88.4468 121.801 88.4468 119.662 87.2117L88.6767 69.3222Z" fill="url(#paint6_linear_4_34)"/>
<path d="M204.873 2.2362C202.734 1.00118 199.266 1.00118 197.127 2.2362L166.141 20.1258C164.002 21.3608 164.002 23.3632 166.141 24.5982L197.127 42.4878C199.266 43.7228 202.734 43.7228 204.873 42.4878L235.859 24.5982C237.998 23.3632 237.998 21.3608 235.859 20.1258L204.873 2.2362Z" fill="url(#paint7_linear_4_34)"/>
<defs>
<linearGradient id="paint0_linear_4_34" x1="-62.7675" y1="44.1222" x2="-91.8878" y2="330.17" gradientUnits="userSpaceOnUse">
<stop stop-color="#4A62FE"/>
<stop offset="0.0625" stop-color="#4B62FE"/>
<stop offset="0.125" stop-color="#4D62FE"/>
<stop offset="0.1875" stop-color="#5162FE"/>
<stop offset="0.25" stop-color="#5763FE"/>
<stop offset="0.3125" stop-color="#5E63FE"/>
<stop offset="0.375" stop-color="#6563FE"/>
<stop offset="0.4375" stop-color="#6E64FE"/>
<stop offset="0.5" stop-color="#7764FF"/>
<stop offset="0.5625" stop-color="#7F64FF"/>
<stop offset="0.625" stop-color="#8865FF"/>
<stop offset="0.6875" stop-color="#8F65FF"/>
<stop offset="0.75" stop-color="#9665FF"/>
<stop offset="0.8125" stop-color="#9C66FF"/>
<stop offset="0.875" stop-color="#A066FF"/>
<stop offset="0.9375" stop-color="#A266FF"/>
<stop offset="1" stop-color="#A366FF"/>
</linearGradient>
<linearGradient id="paint1_linear_4_34" x1="-62.7675" y1="44.1222" x2="-91.8878" y2="330.17" gradientUnits="userSpaceOnUse">
<stop stop-color="#4A62FE"/>
<stop offset="0.0625" stop-color="#4B62FE"/>
<stop offset="0.125" stop-color="#4D62FE"/>
<stop offset="0.1875" stop-color="#5162FE"/>
<stop offset="0.25" stop-color="#5763FE"/>
<stop offset="0.3125" stop-color="#5E63FE"/>
<stop offset="0.375" stop-color="#6563FE"/>
<stop offset="0.4375" stop-color="#6E64FE"/>
<stop offset="0.5" stop-color="#7764FF"/>
<stop offset="0.5625" stop-color="#7F64FF"/>
<stop offset="0.625" stop-color="#8865FF"/>
<stop offset="0.6875" stop-color="#8F65FF"/>
<stop offset="0.75" stop-color="#9665FF"/>
<stop offset="0.8125" stop-color="#9C66FF"/>
<stop offset="0.875" stop-color="#A066FF"/>
<stop offset="0.9375" stop-color="#A266FF"/>
<stop offset="1" stop-color="#A366FF"/>
</linearGradient>
<linearGradient id="paint2_linear_4_34" x1="-62.7675" y1="44.1222" x2="-91.8878" y2="330.17" gradientUnits="userSpaceOnUse">
<stop stop-color="#4A62FE"/>
<stop offset="0.0625" stop-color="#4B62FE"/>
<stop offset="0.125" stop-color="#4D62FE"/>
<stop offset="0.1875" stop-color="#5162FE"/>
<stop offset="0.25" stop-color="#5763FE"/>
<stop offset="0.3125" stop-color="#5E63FE"/>
<stop offset="0.375" stop-color="#6563FE"/>
<stop offset="0.4375" stop-color="#6E64FE"/>
<stop offset="0.5" stop-color="#7764FF"/>
<stop offset="0.5625" stop-color="#7F64FF"/>
<stop offset="0.625" stop-color="#8865FF"/>
<stop offset="0.6875" stop-color="#8F65FF"/>
<stop offset="0.75" stop-color="#9665FF"/>
<stop offset="0.8125" stop-color="#9C66FF"/>
<stop offset="0.875" stop-color="#A066FF"/>
<stop offset="0.9375" stop-color="#A266FF"/>
<stop offset="1" stop-color="#A366FF"/>
</linearGradient>
<linearGradient id="paint3_linear_4_34" x1="-62.7675" y1="44.1222" x2="-91.8878" y2="330.17" gradientUnits="userSpaceOnUse">
<stop stop-color="#4A62FE"/>
<stop offset="0.0625" stop-color="#4B62FE"/>
<stop offset="0.125" stop-color="#4D62FE"/>
<stop offset="0.1875" stop-color="#5162FE"/>
<stop offset="0.25" stop-color="#5763FE"/>
<stop offset="0.3125" stop-color="#5E63FE"/>
<stop offset="0.375" stop-color="#6563FE"/>
<stop offset="0.4375" stop-color="#6E64FE"/>
<stop offset="0.5" stop-color="#7764FF"/>
<stop offset="0.5625" stop-color="#7F64FF"/>
<stop offset="0.625" stop-color="#8865FF"/>
<stop offset="0.6875" stop-color="#8F65FF"/>
<stop offset="0.75" stop-color="#9665FF"/>
<stop offset="0.8125" stop-color="#9C66FF"/>
<stop offset="0.875" stop-color="#A066FF"/>
<stop offset="0.9375" stop-color="#A266FF"/>
<stop offset="1" stop-color="#A366FF"/>
</linearGradient>
<linearGradient id="paint4_linear_4_34" x1="-62.7675" y1="44.1222" x2="-91.8878" y2="330.17" gradientUnits="userSpaceOnUse">
<stop stop-color="#4A62FE"/>
<stop offset="0.0625" stop-color="#4B62FE"/>
<stop offset="0.125" stop-color="#4D62FE"/>
<stop offset="0.1875" stop-color="#5162FE"/>
<stop offset="0.25" stop-color="#5763FE"/>
<stop offset="0.3125" stop-color="#5E63FE"/>
<stop offset="0.375" stop-color="#6563FE"/>
<stop offset="0.4375" stop-color="#6E64FE"/>
<stop offset="0.5" stop-color="#7764FF"/>
<stop offset="0.5625" stop-color="#7F64FF"/>
<stop offset="0.625" stop-color="#8865FF"/>
<stop offset="0.6875" stop-color="#8F65FF"/>
<stop offset="0.75" stop-color="#9665FF"/>
<stop offset="0.8125" stop-color="#9C66FF"/>
<stop offset="0.875" stop-color="#A066FF"/>
<stop offset="0.9375" stop-color="#A266FF"/>
<stop offset="1" stop-color="#A366FF"/>
</linearGradient>
<linearGradient id="paint5_linear_4_34" x1="-62.7675" y1="44.1222" x2="-91.8878" y2="330.17" gradientUnits="userSpaceOnUse">
<stop stop-color="#4A62FE"/>
<stop offset="0.0625" stop-color="#4B62FE"/>
<stop offset="0.125" stop-color="#4D62FE"/>
<stop offset="0.1875" stop-color="#5162FE"/>
<stop offset="0.25" stop-color="#5763FE"/>
<stop offset="0.3125" stop-color="#5E63FE"/>
<stop offset="0.375" stop-color="#6563FE"/>
<stop offset="0.4375" stop-color="#6E64FE"/>
<stop offset="0.5" stop-color="#7764FF"/>
<stop offset="0.5625" stop-color="#7F64FF"/>
<stop offset="0.625" stop-color="#8865FF"/>
<stop offset="0.6875" stop-color="#8F65FF"/>
<stop offset="0.75" stop-color="#9665FF"/>
<stop offset="0.8125" stop-color="#9C66FF"/>
<stop offset="0.875" stop-color="#A066FF"/>
<stop offset="0.9375" stop-color="#A266FF"/>
<stop offset="1" stop-color="#A366FF"/>
</linearGradient>
<linearGradient id="paint6_linear_4_34" x1="-62.7675" y1="44.1222" x2="-91.8878" y2="330.17" gradientUnits="userSpaceOnUse">
<stop stop-color="#4A62FE"/>
<stop offset="0.0625" stop-color="#4B62FE"/>
<stop offset="0.125" stop-color="#4D62FE"/>
<stop offset="0.1875" stop-color="#5162FE"/>
<stop offset="0.25" stop-color="#5763FE"/>
<stop offset="0.3125" stop-color="#5E63FE"/>
<stop offset="0.375" stop-color="#6563FE"/>
<stop offset="0.4375" stop-color="#6E64FE"/>
<stop offset="0.5" stop-color="#7764FF"/>
<stop offset="0.5625" stop-color="#7F64FF"/>
<stop offset="0.625" stop-color="#8865FF"/>
<stop offset="0.6875" stop-color="#8F65FF"/>
<stop offset="0.75" stop-color="#9665FF"/>
<stop offset="0.8125" stop-color="#9C66FF"/>
<stop offset="0.875" stop-color="#A066FF"/>
<stop offset="0.9375" stop-color="#A266FF"/>
<stop offset="1" stop-color="#A366FF"/>
</linearGradient>
<linearGradient id="paint7_linear_4_34" x1="-62.7675" y1="44.1222" x2="-91.8878" y2="330.17" gradientUnits="userSpaceOnUse">
<stop stop-color="#4A62FE"/>
<stop offset="0.0625" stop-color="#4B62FE"/>
<stop offset="0.125" stop-color="#4D62FE"/>
<stop offset="0.1875" stop-color="#5162FE"/>
<stop offset="0.25" stop-color="#5763FE"/>
<stop offset="0.3125" stop-color="#5E63FE"/>
<stop offset="0.375" stop-color="#6563FE"/>
<stop offset="0.4375" stop-color="#6E64FE"/>
<stop offset="0.5" stop-color="#7764FF"/>
<stop offset="0.5625" stop-color="#7F64FF"/>
<stop offset="0.625" stop-color="#8865FF"/>
<stop offset="0.6875" stop-color="#8F65FF"/>
<stop offset="0.75" stop-color="#9665FF"/>
<stop offset="0.8125" stop-color="#9C66FF"/>
<stop offset="0.875" stop-color="#A066FF"/>
<stop offset="0.9375" stop-color="#A266FF"/>
<stop offset="1" stop-color="#A366FF"/>
</linearGradient>
</defs>
</svg>
